<svg height="512pt" viewBox="0 0 512.00008 512.00008" width="512pt" xmlns="http://www.w3.org/2000/svg"><path d="m512 99.699219c-50.699219.214843-98.429688 19.945312-134.28125 55.792969l-47.503906 47.507812-21.214844-21.214844 47.507812-47.507812c19.726563-19.726563 42.425782-35.210938 67.246094-46.03125 27.363282-12.089844 57.273438-18.242188 88.246094-18.242188zm0 0" fill="#70da40"/><path d="m512 99.699219c-50.699219.214843-98.429688 19.945312-134.28125 55.792969l-47.503906 47.507812-10.609375-10.609375 104.148437-104.144531c27.363282-12.089844 57.273438-18.242188 88.246094-18.242188zm0 0" fill="#56c225"/><path d="m458.964844 180.3125c-27.152344-27.15625-65.546875-35.851562-100.335938-26.941406 8.90625-34.789063.210938-73.183594-26.941406-100.339844l-53.035156-53.03125-10.605469 10.605469c-40.941406 40.941406-42.414063 109.027343-1.472656 149.96875l84.851562 84.851562c40.941407 40.941407 109.023438 39.46875 149.964844-1.472656l10.609375-10.609375zm0 0" fill="#90e36a"/><path d="m512 233.34375-10.609375 10.609375c-40.941406 40.941406-109.023437 42.414063-149.964844 1.472656l-42.425781-42.425781 49.628906-49.628906c34.789063-8.90625 73.183594-.210938 100.335938 26.941406zm0 0" fill="#70da40"/><path d="m330.214844 181.785156c-81.246094-81.246094-156.554688-140.429687-254.558594-42.425781-89.730469 89.730469-93.976562 287.863281-42.425781 339.410156 51.546875 51.550781 249.679687 47.304688 339.410156-42.425781 98.003906-98.003906 38.820313-173.3125-42.425781-254.558594zm0 0" fill="#ff6c6c"/><path d="m372.640625 436.34375c-89.730469 89.730469-287.863281 93.976562-339.410156 42.425781l296.984375-296.984375c81.246094 81.246094 140.429687 156.554688 42.425781 254.558594zm0 0" fill="#ff4949"/><path d="m213.542969 192.390625 21.210937 21.214844-42.425781 42.425781-21.210937-21.214844zm0 0" fill="#99503d"/><path d="m298.394531 277.242188 21.210938 21.210937-42.425781 42.425781-21.210938-21.210937zm0 0" fill="#804231"/><path d="m128.6875 192.390625 21.214844 21.214844-42.425782 42.425781-21.214843-21.214844zm0 0" fill="#99503d"/><path d="m171.113281 319.671875 42.425781-42.425781 21.210938 21.210937-42.425781 42.425781zm0 0" fill="#99503d"/><path d="m181.71875 330.277344 42.425781-42.425782 10.605469 10.605469-42.425781 42.425781zm0 0" fill="#804231"/><path d="m298.394531 362.09375 21.214844 21.210938-42.429687 42.429687-21.210938-21.214844zm0 0" fill="#804231"/><path d="m128.691406 277.242188 21.210938 21.214843-42.425782 42.425781-21.210937-21.214843zm0 0" fill="#99503d"/><path d="m213.542969 362.09375 21.214843 21.214844-42.429687 42.425781-21.210937-21.214844zm0 0" fill="#804231"/><path d="m86.257812 404.523438 42.425782-42.425782 21.214844 21.210938-42.425782 42.425781zm0 0" fill="#99503d"/><path d="m107.472656 425.742188-10.605468-10.605469 42.425781-42.425781 10.605469 10.605468zm0 0" fill="#804231"/></svg>